<svg width="1000" height="600" viewBox="0 0 1000 600" fill="none" xmlns="http://www.w3.org/2000/svg">
<g clip-path="url(#clip0_111_2)">
<path d="M0 0H1000V600H0V0Z" fill="#FFFBFB"/>
<path d="M0 66C12.465 62.874 24.93 59.748 38 58C51.07 56.252 64.743 55.88 77 56C89.257 56.12 100.098 56.729 112 60C123.902 63.271 136.867 69.204 151 72C165.133 74.796 180.435 74.455 194 72C207.565 69.545 219.395 64.977 232 65C244.605 65.023 257.987 69.636 270 70C282.013 70.364 292.658 66.48 306 63C319.342 59.52 335.38 56.447 348 59C360.62 61.553 369.822 69.734 382 74C394.178 78.266 409.331 78.617 423 74C436.669 69.383 448.852 59.8 462 61C475.148 62.2 489.259 74.187 502 76C514.741 77.813 526.113 69.453 538 65C549.887 60.547 562.29 60 575 62C587.71 64 600.726 68.546 614 72C627.274 75.454 640.806 77.816 653 74C665.194 70.184 676.049 60.191 689 57C701.951 53.809 716.998 57.419 731 59C745.002 60.581 757.957 60.134 771 62C784.043 63.866 797.172 68.044 809 70C820.828 71.956 831.356 71.69 844 72C856.644 72.31 871.405 73.193 885 73C898.595 72.807 911.026 71.536 923 69C934.974 66.464 946.493 62.663 961 60C975.507 57.337 993.002 55.81 1000 57C1007 58.19 1003.5 62.095 1040 66L1000 600H0V66Z" fill="url(#paint0_linear_111_2)"/>
<path d="M0 133C11.17 127.547 22.34 122.095 35 125C47.66 127.905 61.808 139.169 75 140C88.192 140.831 100.426 131.231 113 126C125.574 120.769 138.487 119.907 152 123C165.513 126.093 179.626 133.14 193 133C206.374 132.86 219.01 125.533 231 123C242.99 120.467 254.334 122.728 267 125C279.666 127.272 293.653 129.557 307 133C320.347 136.443 333.053 141.046 346 139C358.947 136.954 372.135 128.258 385 126C397.865 123.742 410.409 127.92 424 132C437.591 136.08 452.23 140.06 464 140C475.77 139.94 484.67 135.842 497 132C509.33 128.158 525.089 124.571 538 126C550.911 127.429 560.975 133.873 574 135C587.025 136.127 603.012 131.937 616 130C628.988 128.063 638.977 128.378 651 127C663.023 125.622 677.08 122.55 690 125C702.92 127.45 714.704 135.421 728 139C741.296 142.579 756.105 141.765 770 141C783.895 140.235 796.875 139.518 809 139C821.125 138.482 832.395 138.164 845 138C857.605 137.836 871.546 137.826 885 138C898.454 138.174 911.42 138.531 924 139C936.58 139.469 948.771 140.05 963 137C977.229 133.95 993.494 127.272 1000 126C1006.51 124.728 1003.25 128.864 1040 133L1000 600H0V133Z" fill="url(#paint1_linear_111_2)"/>
<path d="M0 200C13.164 200.548 26.328 201.095 39 203C51.672 204.905 63.85 208.166 76 206C88.15 203.834 100.268 196.239 114 195C127.732 193.761 143.075 198.878 156 200C168.925 201.122 179.43 198.25 191 197C202.57 195.75 215.203 196.122 229 195C242.797 193.878 257.759 191.262 271 192C284.241 192.738 295.762 196.83 307 197C318.238 197.17 329.194 193.421 343 194C356.806 194.579 373.463 199.486 387 200C400.537 200.514 410.952 196.635 423 199C435.048 201.365 448.727 209.973 461 209C473.273 208.027 484.141 197.473 497 197C509.859 196.527 524.71 206.136 539 206C553.29 205.864 567.021 195.982 579 193C590.979 190.018 601.205 193.937 613 198C624.795 202.063 638.157 206.271 652 208C665.843 209.729 680.165 208.978 693 206C705.835 203.022 717.181 197.818 730 195C742.819 192.182 757.11 191.75 770 194C782.89 196.25 794.382 201.185 807 202C819.618 202.815 833.363 199.51 847 196C860.637 192.49 874.165 188.772 887 191C899.835 193.228 911.976 201.401 923 206C934.024 210.599 943.93 211.623 959 209C974.07 206.377 994.306 200.108 1002 198C1009.69 195.892 1004.85 197.946 1040 200L1000 600H0V200Z" fill="url(#paint2_linear_111_2)"/>
<path d="M0 266C14.008 269.312 28.015 272.624 40 270C51.985 267.376 61.947 258.815 75 260C88.053 261.185 104.197 272.115 118 274C131.803 275.885 143.266 268.726 156 268C168.734 267.274 182.74 272.983 195 274C207.26 275.017 217.774 271.342 230 268C242.226 264.658 256.163 261.649 270 259C283.837 256.351 297.575 254.063 310 259C322.425 263.937 333.54 276.099 346 276C358.46 275.901 372.27 263.542 386 258C399.73 252.458 413.384 253.732 425 258C436.616 262.268 446.194 269.529 458 270C469.806 270.471 483.838 264.152 497 262C510.162 259.848 522.452 261.864 536 262C549.548 262.136 564.354 260.392 578 261C591.646 261.608 604.133 264.57 616 267C627.867 269.43 639.113 271.33 651 268C662.887 264.67 675.416 256.108 689 256C702.584 255.892 717.222 264.236 731 266C744.778 267.764 757.695 262.948 770 262C782.305 261.052 793.998 263.97 807 263C820.002 262.03 834.314 257.168 848 258C861.686 258.832 874.744 265.355 887 267C899.256 268.645 910.708 265.41 922 264C933.292 262.59 944.425 263.005 959 262C973.575 260.995 991.593 258.57 999 259C1006.41 259.43 1003.2 262.715 1040 266L1000 600H0V266Z" fill="url(#paint3_linear_111_2)"/>
<path d="M0 333C13.49 328.804 26.98 324.608 40 323C53.02 321.392 65.568 322.371 78 324C90.432 325.629 102.747 327.907 115 332C127.253 336.093 139.444 342 152 342C164.556 342 177.477 336.094 190 332C202.523 327.906 214.65 325.624 229 327C243.35 328.376 259.927 333.41 272 335C284.073 336.59 291.644 334.736 304 331C316.356 327.264 333.497 321.645 347 323C360.503 324.355 370.37 332.685 382 335C393.63 337.315 407.026 333.615 421 333C434.974 332.385 449.527 334.854 463 335C476.473 335.146 488.867 332.97 501 330C513.133 327.03 525.005 323.269 537 326C548.995 328.731 561.111 337.956 575 337C588.889 336.044 604.55 324.906 618 323C631.45 321.094 642.69 328.42 654 330C665.31 331.58 676.688 327.41 690 326C703.312 324.59 718.557 325.936 732 330C745.443 334.064 757.084 340.846 769 341C780.916 341.154 793.108 334.679 806 333C818.892 331.321 832.485 334.438 845 332C857.515 329.562 868.953 321.57 882 324C895.047 326.43 909.703 339.28 923 341C936.297 342.72 948.234 333.31 962 330C975.766 326.69 991.362 329.483 998 331C1004.64 332.517 1002.32 332.758 1040 333L1000 600H0V333Z" fill="url(#paint4_linear_111_2)"/>
<path d="M0 400C12.917 395.558 25.834 391.116 38 394C50.166 396.884 61.58 407.093 74 407C86.42 406.907 99.845 396.512 113 393C126.155 389.488 139.04 392.86 152 397C164.96 401.14 177.993 406.046 191 407C204.007 407.954 216.987 404.956 230 404C243.013 403.044 256.059 404.13 268 406C279.941 407.87 290.777 410.527 304 406C317.223 401.473 332.833 389.761 347 390C361.167 390.239 373.892 402.428 386 406C398.108 409.572 409.598 404.526 422 403C434.402 401.474 447.715 403.469 461 406C474.285 408.531 487.542 411.599 501 409C514.458 406.401 528.118 398.137 541 395C553.882 391.863 565.986 393.855 578 397C590.014 400.145 601.938 404.444 615 404C628.062 403.556 642.263 398.37 655 394C667.737 389.63 679.01 386.077 692 390C704.99 393.923 719.694 405.322 732 405C744.306 404.678 754.212 392.637 767 392C779.788 391.363 795.457 402.132 809 405C822.543 407.868 833.96 402.837 846 400C858.04 397.163 870.701 396.522 883 395C895.299 393.478 907.235 391.077 920 394C932.765 396.923 946.36 405.172 961 405C975.64 404.828 991.326 396.237 998 394C1004.67 391.763 1002.34 395.882 1040 400L1000 600H0V400Z" fill="url(#paint5_linear_111_2)"/>
<path d="M0 466C12.987 467.834 25.973 469.667 38 470C50.027 470.333 61.094 469.165 74 467C86.906 464.835 101.651 461.673 116 460C130.349 458.327 144.3 458.141 156 462C167.7 465.859 177.147 473.762 190 472C202.853 470.238 219.11 458.813 233 457C246.89 455.187 258.41 462.988 271 467C283.59 471.012 297.25 471.234 310 470C322.75 468.766 334.589 466.075 346 468C357.411 469.925 368.395 476.467 382 475C395.605 473.533 411.83 464.059 425 460C438.17 455.941 448.282 457.3 460 459C471.718 460.7 485.043 462.745 499 466C512.957 469.255 527.547 473.722 540 474C552.453 474.278 562.77 470.367 575 466C587.23 461.633 601.372 456.809 615 457C628.628 457.191 641.741 462.397 655 464C668.259 465.603 681.663 463.603 694 463C706.337 462.397 717.609 463.192 730 465C742.391 466.808 755.903 469.628 769 468C782.097 466.372 794.778 460.296 808 460C821.222 459.704 834.983 465.188 847 467C859.017 468.812 869.289 466.952 882 464C894.711 461.048 909.86 457.002 922 458C934.14 458.998 943.268 465.038 958 465C972.732 464.962 993.066 458.846 1001 458C1008.93 457.154 1004.47 461.577 1040 466L1000 600H0V466Z" fill="url(#paint6_linear_111_2)"/>
<path d="M0 533C13.498 530.437 26.996 527.874 40 528C53.004 528.126 65.515 530.94 78 531C90.485 531.06 102.943 528.362 116 527C129.057 525.638 142.714 525.61 155 529C167.286 532.39 178.2 539.2 191 538C203.8 536.8 218.487 527.594 232 524C245.513 520.406 257.854 522.425 270 525C282.146 527.575 294.098 530.707 306 530C317.902 529.293 329.753 524.749 343 524C356.247 523.251 370.89 526.298 384 529C397.11 531.702 408.69 534.059 422 534C435.31 533.941 450.353 531.467 464 530C477.647 528.533 489.9 528.074 502 530C514.1 531.926 526.049 536.237 538 538C549.951 539.763 561.905 538.978 575 536C588.095 533.022 602.332 527.851 615 525C627.668 522.149 638.767 521.617 652 526C665.233 530.383 680.598 539.68 694 542C707.402 544.32 718.84 539.664 731 538C743.16 536.336 756.043 537.663 769 538C781.957 538.337 794.987 537.685 807 535C819.013 532.315 830.008 527.598 843 528C855.992 528.402 870.981 533.923 884 536C897.019 538.077 908.067 536.711 920 535C931.933 533.289 944.751 531.232 960 529C975.249 526.768 992.928 524.362 1000 525C1007.07 525.638 1003.54 529.319 1040 533L1000 600H0V533Z" fill="url(#paint7_linear_111_2)"/>
</g>
<defs>
<linearGradient id="paint0_linear_111_2" x1="-55.7243" y1="1.71116e-05" x2="-55.7243" y2="1040" gradientUnits="userSpaceOnUse">
<stop offset="0.05" stop-color="#FEDBDB"/>
<stop offset="0.95" stop-color="#FEE4E4"/>
</linearGradient>
<linearGradient id="paint1_linear_111_2" x1="-121.21" y1="-2.75223e-05" x2="-121.21" y2="1040" gradientUnits="userSpaceOnUse">
<stop offset="0.05" stop-color="#FEBCBC"/>
<stop offset="0.95" stop-color="#FECCCC"/>
</linearGradient>
<linearGradient id="paint2_linear_111_2" x1="-190.326" y1="2.46773e-05" x2="-190.326" y2="1040" gradientUnits="userSpaceOnUse">
<stop offset="0.05" stop-color="#FD9C9C"/>
<stop offset="0.95" stop-color="#FDB4B4"/>
</linearGradient>
<linearGradient id="paint3_linear_111_2" x1="-254.306" y1="5.59764e-05" x2="-254.306" y2="1040" gradientUnits="userSpaceOnUse">
<stop offset="0.05" stop-color="#FC7C7C"/>
<stop offset="0.95" stop-color="#FC9C9C"/>
</linearGradient>
<linearGradient id="paint4_linear_111_2" x1="-322.179" y1="4.0435e-05" x2="-322.179" y2="1040" gradientUnits="userSpaceOnUse">
<stop offset="0.05" stop-color="#D07575"/>
<stop offset="0.95" stop-color="#DB9797"/>
</linearGradient>
<linearGradient id="paint5_linear_111_2" x1="-388.308" y1="2.67396e-05" x2="-388.308" y2="1040" gradientUnits="userSpaceOnUse">
<stop offset="0.05" stop-color="#A56E6E"/>
<stop offset="0.95" stop-color="#BB9292"/>
</linearGradient>
<linearGradient id="paint6_linear_111_2" x1="-456.731" y1="2.7495e-05" x2="-456.731" y2="1040" gradientUnits="userSpaceOnUse">
<stop offset="0.05" stop-color="#796666"/>
<stop offset="0.95" stop-color="#9A8C8C"/>
</linearGradient>
<linearGradient id="paint7_linear_111_2" x1="-522.056" y1="-0.00012786" x2="-522.056" y2="1040" gradientUnits="userSpaceOnUse">
<stop offset="0.05" stop-color="#5F5F5F"/>
<stop offset="0.95" stop-color="#5F5F5F"/>
</linearGradient>
<clipPath id="clip0_111_2">
<rect width="1000" height="600" fill="white"/>
</clipPath>
</defs>
</svg>
