<svg width="1000" height="600" xmlns="http://www.w3.org/2000/svg"><path fill="#fef1f1" d="M0 0h1000v600H0z"/><path d="M0 75h0c19.66 4.37 39.319 8.74 59 3 19.681-5.74 39.384-21.59 57-18s33.147 26.619 49 29c15.853 2.381 32.03-15.885 49-18s34.735 11.923 57 18 49.031 4.194 69-3 33.141-19.698 47-19c13.859.698 28.404 14.6 50 14 21.596-.6 50.242-15.7 69-17 18.758-1.3 27.626 11.203 44 13 16.374 1.797 40.253-7.113 60-6 19.747 1.113 35.361 12.248 55 12 19.639-.248 43.303-11.878 62-15 18.697-3.122 32.427 2.263 51 6s41.988 5.827 62 7 36.622 1.428 54 4 35.525 7.462 54 1 37.279-24.275 46-28c8.721-3.725 7.36 6.637 46 17" fill="none" stroke="#fc8585" stroke-width="15" stroke-linecap="round"/><path d="M0 150h0c19.453-8.074 38.907-16.148 55-12 16.093 4.148 28.826 20.519 49 22 20.174 1.481 47.789-11.927 69-20s36.02-10.81 52-2c15.98 8.81 33.135 29.166 52 25 18.865-4.166 39.44-32.856 59-32 19.56.856 38.102 31.257 55 36 16.898 4.743 32.15-16.173 51-18 18.85-1.827 41.3 15.436 59 15 17.7-.436 30.654-18.57 50-29s45.086-13.154 64-6 31.001 24.186 48 26 38.908-11.591 58-17c19.092-5.409 35.367-2.822 53 2 17.633 4.822 36.626 11.878 58 18 21.374 6.122 45.131 11.311 62 12 16.869.689 26.85-3.122 47-12s50.472-22.822 62-25c11.528-2.178 4.264 7.411 37 17" fill="none" stroke="#fc7f7f" stroke-width="15" stroke-linecap="round"/><path d="M0 225h0c16.156-7.865 32.313-15.73 52-19 19.687-3.27 42.906-1.945 63 1 20.094 2.945 37.063 7.51 53 7 15.937-.51 30.843-6.093 48 0s36.564 23.862 57 24c20.436.138 41.9-17.354 62-21 20.1-3.646 38.834 6.556 55 4 16.166-2.556 29.764-17.868 48-15 18.236 2.868 41.11 23.918 60 31 18.89 7.082 33.794.196 54-6 20.206-6.196 45.713-11.702 64-17s29.354-10.388 46-8 38.87 12.255 59 21c20.13 8.745 38.167 16.37 54 16 15.833-.37 29.46-8.735 51-17s50.99-16.432 70-17c19.01-.568 27.58 6.462 45 12s43.692 9.582 55 10c11.308.418 7.654-2.791 44-6" fill="none" stroke="#fdc3c3" stroke-width="15" stroke-linecap="round"/><path d="M0 300h0c18.684 7.314 37.369 14.628 56 14 18.631-.628 37.21-9.2 54-11 16.79-1.8 31.791 3.168 53 0s48.626-14.473 66-15c17.374-.527 24.706 9.724 43 14s47.549 2.579 68 2c20.451-.579 32.099-.039 47-3 14.901-2.961 33.057-9.424 54-8 20.943 1.424 44.674 10.734 65 13s37.247-2.511 55-10 36.339-17.69 54-17c17.661.69 34.398 12.267 53 17 18.602 4.733 39.068 2.62 57 1 17.932-1.62 33.331-2.746 50-7 16.669-4.254 34.607-11.637 56-6 21.393 5.637 46.24 24.295 64 28 17.76 3.705 28.436-7.54 49-13s51.018-5.131 62-4c10.982 1.131 2.49 3.066 34 5" fill="none" stroke="#fc9292" stroke-width="15" stroke-linecap="round"/><path d="M0 375h0c18.442-.634 36.884-1.268 57-4s41.907-7.562 58-4c16.093 3.562 26.487 15.517 45 15 18.513-.517 45.143-13.506 66-16 20.857-2.494 35.94 5.507 53 2 17.06-3.507 36.095-18.522 54-14 17.905 4.522 34.678 28.582 53 34 18.322 5.418 38.193-7.804 58-17 19.807-9.196 39.55-14.366 59-15 19.45-.634 38.605 3.267 56 5 17.395 1.733 33.03 1.296 53 7s44.277 17.547 61 20c16.723 2.453 25.864-4.486 43-10s42.269-9.603 64-14 40.06-9.104 57-4c16.94 5.104 32.489 20.017 52 27 19.511 6.983 42.984 6.034 62 4s33.576-5.153 41-8c7.424-2.847 7.712-5.424 48-8" fill="none" stroke="#fdcdcd" stroke-width="15" stroke-linecap="round"/><path d="M0 450h0c16.976 3.987 33.953 7.973 52 13 18.047 5.027 37.165 11.093 57 7s40.389-18.346 59-18c18.611.346 35.28 15.29 53 13 17.72-2.29 36.492-21.818 57-26 20.508-4.182 42.752 6.98 61 5 18.248-1.98 32.5-17.101 50-13 17.5 4.101 38.25 27.425 55 38s29.498 8.4 49 0 45.757-23.026 64-22c18.243 1.026 28.476 17.705 47 20 18.524 2.295 45.34-9.794 67-18 21.66-8.206 38.16-12.529 55-13 16.84-.471 34.016 2.91 52 2 17.984-.91 36.775-6.111 54 1s32.885 26.535 51 28c18.115 1.465 38.685-15.029 59-19 20.315-3.971 40.376 4.58 50 7 9.624 2.42 8.812-1.29 48-5" fill="none" stroke="#fdb4b4" stroke-width="15" stroke-linecap="round"/><path d="M0 525h0c20.143 9.673 40.285 19.347 58 13 17.715-6.347 33-28.713 51-31 18-2.287 38.71 15.506 58 22s37.156 1.688 56-1c18.844-2.688 38.667-3.258 57-2s35.177 4.345 51 1c15.823-3.345 30.625-13.12 50-20 19.375-6.88 43.323-10.862 64-3s38.084 27.567 54 28c15.916.433 30.34-18.406 50-19 19.66-.594 44.556 17.057 66 23 21.444 5.943 39.435.177 58-8 18.565-8.177 37.704-18.766 56-14 18.296 4.766 35.75 24.887 54 30 18.25 5.113 37.296-4.782 56-13s37.065-14.76 53-17c15.935-2.24 29.444-.18 51 6s51.159 16.48 62 18c10.841 1.52 2.92-5.74 35-13" fill="none" stroke="#fdbebe" stroke-width="15" stroke-linecap="round"/></svg>